ISO-10303-21;
HEADER;
/* Generated by software containing ST-Developer
 * from STEP Tools, Inc. (www.steptools.com) 
 */

FILE_DESCRIPTION(
/* description */ (''),
/* implementation_level */ '2;1');

FILE_NAME(
/* name */ 'FINAL CNH TAY.step',
/* time_stamp */ '2026-08-20T12:43:27+07:00',
/* author */ (''),
/* organization */ (''),
/* preprocessor_version */ 'ST-DEVELOPER v20.1',
/* originating_system */ 'Autodesk Translation Framework v15.8.0.0',
/* authorisation */ '');

FILE_SCHEMA (('AUTOMOTIVE_DESIGN { 1 0 10303 214 3 1 1 }'));
ENDSEC;

DATA;
#10=MECHANICAL_DESIGN_GEOMETRIC_PRESENTATION_REPRESENTATION('',(#13,#14),
#760);
#11=SHAPE_REPRESENTATION_RELATIONSHIP('SRR','None',#766,#12);
#12=ADVANCED_BREP_SHAPE_REPRESENTATION('',(#15,#16),#759);
#13=STYLED_ITEM('',(#775),#15);
#14=STYLED_ITEM('',(#775),#16);
#15=MANIFOLD_SOLID_BREP('Body56',#385);
#16=MANIFOLD_SOLID_BREP('Body57',#386);
#17=(
BOUNDED_SURFACE()
B_SPLINE_SURFACE(2,2,((#610,#611,#612,#613,#614),(#615,#616,#617,#618,#619),
(#620,#621,#622,#623,#624),(#625,#626,#627,#628,#629),(#630,#631,#632,#633,
#634)),.UNSPECIFIED.,.F.,.F.,.F.)
B_SPLINE_SURFACE_WITH_KNOTS((3,2,3),(3,2,3),(-1.5707963267949,0.,1.5707963267949),
(-1.5707963267949,-2.22044604925031E-16,1.5707963267949),.UNSPECIFIED.)
GEOMETRIC_REPRESENTATION_ITEM()
RATIONAL_B_SPLINE_SURFACE(((1.,0.707106781186548,1.,0.707106781186548,1.),
(0.707106781186548,0.5,0.707106781186548,0.5,0.707106781186548),(1.,0.707106781186548,
1.,0.707106781186548,1.),(0.707106781186547,0.5,0.707106781186547,0.5,0.707106781186547),
(1.,0.707106781186548,1.,0.707106781186548,1.)))
REPRESENTATION_ITEM('')
SURFACE()
);
#18=(
BOUNDED_SURFACE()
B_SPLINE_SURFACE(2,2,((#642,#643,#644),(#645,#646,#647),(#648,#649,#650),
(#651,#652,#653),(#654,#655,#656)),.UNSPECIFIED.,.F.,.F.,.F.)
B_SPLINE_SURFACE_WITH_KNOTS((3,2,3),(3,3),(-1.5707963267949,3.33066907387547E-16,
1.5707963267949),(-1.57079630692668,-0.543987524576663),.UNSPECIFIED.)
GEOMETRIC_REPRESENTATION_ITEM()
RATIONAL_B_SPLINE_SURFACE(((1.,0.871077507048059,1.),(0.707106781186547,
0.615944812172755,0.707106781186547),(1.,0.871077507048059,1.),(0.707106781186547,
0.615944812172755,0.707106781186547),(1.,0.871077507048059,1.)))
REPRESENTATION_ITEM('')
SURFACE()
);
#19=(
BOUNDED_SURFACE()
B_SPLINE_SURFACE(2,2,((#704,#705,#706,#707,#708),(#709,#710,#711,#712,#713),
(#714,#715,#716,#717,#718),(#719,#720,#721,#722,#723),(#724,#725,#726,#727,
#728)),.UNSPECIFIED.,.F.,.F.,.F.)
B_SPLINE_SURFACE_WITH_KNOTS((3,2,3),(3,2,3),(-1.5707963267949,0.,1.5707963267949),
(-1.5707963267949,0.,1.5707963267949),.UNSPECIFIED.)
GEOMETRIC_REPRESENTATION_ITEM()
RATIONAL_B_SPLINE_SURFACE(((1.,0.707106781186548,1.,0.707106781186548,1.),
(0.707106781186548,0.5,0.707106781186548,0.5,0.707106781186548),(1.,0.707106781186548,
1.,0.707106781186548,1.),(0.707106781186547,0.5,0.707106781186547,0.5,0.707106781186547),
(1.,0.707106781186548,1.,0.707106781186548,1.)))
REPRESENTATION_ITEM('')
SURFACE()
);
#20=(
BOUNDED_SURFACE()
B_SPLINE_SURFACE(2,2,((#736,#737,#738),(#739,#740,#741),(#742,#743,#744),
(#745,#746,#747),(#748,#749,#750)),.UNSPECIFIED.,.F.,.F.,.F.)
B_SPLINE_SURFACE_WITH_KNOTS((3,2,3),(3,3),(-1.5707963267949,3.33066907387547E-16,
1.5707963267949),(-1.57079630692668,-0.543987524576663),.UNSPECIFIED.)
GEOMETRIC_REPRESENTATION_ITEM()
RATIONAL_B_SPLINE_SURFACE(((1.,0.871077507048059,1.),(0.707106781186547,
0.615944812172755,0.707106781186547),(1.,0.871077507048059,1.),(0.707106781186547,
0.615944812172755,0.707106781186547),(1.,0.871077507048059,1.)))
REPRESENTATION_ITEM('')
SURFACE()
);
#21=TOROIDAL_SURFACE('',#401,3.5,2.5);
#22=TOROIDAL_SURFACE('',#427,3.5,2.5);
#23=ELLIPSE('',#398,2.52999744322403,2.5);
#24=ELLIPSE('',#424,2.52999744322403,2.5);
#25=PLANE('',#392);
#26=PLANE('',#393);
#27=PLANE('',#396);
#28=PLANE('',#413);
#29=PLANE('',#418);
#30=PLANE('',#419);
#31=PLANE('',#422);
#32=PLANE('',#439);
#33=FACE_OUTER_BOUND('',#57,.T.);
#34=FACE_OUTER_BOUND('',#58,.T.);
#35=FACE_OUTER_BOUND('',#59,.T.);
#36=FACE_OUTER_BOUND('',#60,.T.);
#37=FACE_OUTER_BOUND('',#61,.T.);
#38=FACE_OUTER_BOUND('',#62,.T.);
#39=FACE_OUTER_BOUND('',#63,.T.);
#40=FACE_OUTER_BOUND('',#64,.T.);
#41=FACE_OUTER_BOUND('',#65,.T.);
#42=FACE_OUTER_BOUND('',#66,.T.);
#43=FACE_OUTER_BOUND('',#67,.T.);
#44=FACE_OUTER_BOUND('',#68,.T.);
#45=FACE_OUTER_BOUND('',#69,.T.);
#46=FACE_OUTER_BOUND('',#70,.T.);
#47=FACE_OUTER_BOUND('',#71,.T.);
#48=FACE_OUTER_BOUND('',#72,.T.);
#49=FACE_OUTER_BOUND('',#73,.T.);
#50=FACE_OUTER_BOUND('',#74,.T.);
#51=FACE_OUTER_BOUND('',#75,.T.);
#52=FACE_OUTER_BOUND('',#76,.T.);
#53=FACE_OUTER_BOUND('',#77,.T.);
#54=FACE_OUTER_BOUND('',#78,.T.);
#55=FACE_OUTER_BOUND('',#79,.T.);
#56=FACE_OUTER_BOUND('',#80,.T.);
#57=EDGE_LOOP('',(#243,#244,#245,#246,#247));
#58=EDGE_LOOP('',(#248));
#59=EDGE_LOOP('',(#249,#250,#251,#252,#253,#254,#255,#256));
#60=EDGE_LOOP('',(#257,#258,#259,#260));
#61=EDGE_LOOP('',(#261,#262,#263,#264));
#62=EDGE_LOOP('',(#265,#266,#267,#268));
#63=EDGE_LOOP('',(#269,#270,#271,#272));
#64=EDGE_LOOP('',(#273,#274,#275,#276));
#65=EDGE_LOOP('',(#277,#278,#279,#280));
#66=EDGE_LOOP('',(#281,#282,#283,#284));
#67=EDGE_LOOP('',(#285,#286,#287,#288));
#68=EDGE_LOOP('',(#289,#290,#291,#292,#293,#294,#295,#296));
#69=EDGE_LOOP('',(#297,#298,#299,#300,#301));
#70=EDGE_LOOP('',(#302));
#71=EDGE_LOOP('',(#303,#304,#305,#306,#307,#308,#309,#310));
#72=EDGE_LOOP('',(#311,#312,#313,#314));
#73=EDGE_LOOP('',(#315,#316,#317,#318));
#74=EDGE_LOOP('',(#319,#320,#321,#322));
#75=EDGE_LOOP('',(#323,#324,#325,#326));
#76=EDGE_LOOP('',(#327,#328,#329,#330));
#77=EDGE_LOOP('',(#331,#332,#333,#334));
#78=EDGE_LOOP('',(#335,#336,#337,#338));
#79=EDGE_LOOP('',(#339,#340,#341,#342));
#80=EDGE_LOOP('',(#343,#344,#345,#346,#347,#348,#349,#350));
#81=LINE('',#573,#103);
#82=LINE('',#580,#104);
#83=LINE('',#584,#105);
#84=LINE('',#586,#106);
#85=LINE('',#588,#107);
#86=LINE('',#591,#108);
#87=LINE('',#597,#109);
#88=LINE('',#600,#110);
#89=LINE('',#609,#111);
#90=LINE('',#641,#112);
#91=LINE('',#661,#113);
#92=LINE('',#667,#114);
#93=LINE('',#674,#115);
#94=LINE('',#678,#116);
#95=LINE('',#680,#117);
#96=LINE('',#682,#118);
#97=LINE('',#685,#119);
#98=LINE('',#690,#120);
#99=LINE('',#695,#121);
#100=LINE('',#703,#122);
#101=LINE('',#735,#123);
#102=LINE('',#755,#124);
#103=VECTOR('',#446,2.);
#104=VECTOR('',#455,10.);
#105=VECTOR('',#458,10.);
#106=VECTOR('',#459,10.);
#107=VECTOR('',#460,10.);
#108=VECTOR('',#463,10.);
#109=VECTOR('',#470,10.);
#110=VECTOR('',#473,10.);
#111=VECTOR('',#486,10.);
#112=VECTOR('',#495,10.);
#113=VECTOR('',#502,10.);
#114=VECTOR('',#509,2.);
#115=VECTOR('',#518,10.);
#116=VECTOR('',#521,10.);
#117=VECTOR('',#522,10.);
#118=VECTOR('',#523,10.);
#119=VECTOR('',#526,10.);
#120=VECTOR('',#531,10.);
#121=VECTOR('',#538,10.);
#122=VECTOR('',#549,10.);
#123=VECTOR('',#558,10.);
#124=VECTOR('',#565,10.);
#125=CIRCLE('',#389,2.);
#126=CIRCLE('',#390,2.);
#127=CIRCLE('',#391,2.);
#128=CIRCLE('',#394,2.);
#129=CIRCLE('',#395,3.5);
#130=CIRCLE('',#397,2.5);
#131=CIRCLE('',#400,2.5);
#132=CIRCLE('',#402,2.5);
#133=CIRCLE('',#403,3.5);
#134=CIRCLE('',#405,2.5);
#135=CIRCLE('',#406,2.5);
#136=CIRCLE('',#407,2.);
#137=CIRCLE('',#409,2.50000006705522);
#138=CIRCLE('',#410,2.5);
#139=CIRCLE('',#411,2.);
#140=CIRCLE('',#415,2.);
#141=CIRCLE('',#416,2.);
#142=CIRCLE('',#417,2.);
#143=CIRCLE('',#420,3.5);
#144=CIRCLE('',#421,2.);
#145=CIRCLE('',#423,2.5);
#146=CIRCLE('',#426,2.5);
#147=CIRCLE('',#428,2.5);
#148=CIRCLE('',#429,3.5);
#149=CIRCLE('',#431,2.5);
#150=CIRCLE('',#432,2.5);
#151=CIRCLE('',#433,2.);
#152=CIRCLE('',#435,2.50000006705522);
#153=CIRCLE('',#436,2.5);
#154=CIRCLE('',#437,2.);
#155=VERTEX_POINT('',#570);
#156=VERTEX_POINT('',#572);
#157=VERTEX_POINT('',#574);
#158=VERTEX_POINT('',#579);
#159=VERTEX_POINT('',#581);
#160=VERTEX_POINT('',#583);
#161=VERTEX_POINT('',#585);
#162=VERTEX_POINT('',#587);
#163=VERTEX_POINT('',#589);
#164=VERTEX_POINT('',#593);
#165=VERTEX_POINT('',#595);
#166=VERTEX_POINT('',#599);
#167=VERTEX_POINT('',#603);
#168=VERTEX_POINT('',#607);
#169=VERTEX_POINT('',#635);
#170=VERTEX_POINT('',#639);
#171=VERTEX_POINT('',#657);
#172=VERTEX_POINT('',#664);
#173=VERTEX_POINT('',#666);
#174=VERTEX_POINT('',#668);
#175=VERTEX_POINT('',#673);
#176=VERTEX_POINT('',#675);
#177=VERTEX_POINT('',#677);
#178=VERTEX_POINT('',#679);
#179=VERTEX_POINT('',#681);
#180=VERTEX_POINT('',#683);
#181=VERTEX_POINT('',#687);
#182=VERTEX_POINT('',#689);
#183=VERTEX_POINT('',#693);
#184=VERTEX_POINT('',#697);
#185=VERTEX_POINT('',#701);
#186=VERTEX_POINT('',#729);
#187=VERTEX_POINT('',#733);
#188=VERTEX_POINT('',#751);
#189=EDGE_CURVE('',#155,#155,#125,.T.);
#190=EDGE_CURVE('',#155,#156,#81,.T.);
#191=EDGE_CURVE('',#157,#156,#126,.T.);
#192=EDGE_CURVE('',#156,#157,#127,.T.);
#193=EDGE_CURVE('',#158,#157,#82,.T.);
#194=EDGE_CURVE('',#159,#158,#128,.T.);
#195=EDGE_CURVE('',#160,#159,#83,.T.);
#196=EDGE_CURVE('',#160,#161,#84,.T.);
#197=EDGE_CURVE('',#162,#161,#85,.T.);
#198=EDGE_CURVE('',#163,#162,#129,.T.);
#199=EDGE_CURVE('',#156,#163,#86,.T.);
#200=EDGE_CURVE('',#161,#164,#130,.T.);
#201=EDGE_CURVE('',#165,#160,#23,.T.);
#202=EDGE_CURVE('',#165,#164,#87,.T.);
#203=EDGE_CURVE('',#164,#166,#88,.T.);
#204=EDGE_CURVE('',#162,#166,#131,.T.);
#205=EDGE_CURVE('',#163,#167,#132,.T.);
#206=EDGE_CURVE('',#166,#167,#133,.T.);
#207=EDGE_CURVE('',#156,#168,#134,.T.);
#208=EDGE_CURVE('',#167,#168,#89,.T.);
#209=EDGE_CURVE('',#157,#169,#135,.T.);
#210=EDGE_CURVE('',#168,#169,#136,.T.);
#211=EDGE_CURVE('',#158,#170,#137,.T.);
#212=EDGE_CURVE('',#169,#170,#90,.T.);
#213=EDGE_CURVE('',#159,#171,#138,.T.);
#214=EDGE_CURVE('',#170,#171,#139,.T.);
#215=EDGE_CURVE('',#171,#165,#91,.T.);
#216=EDGE_CURVE('',#172,#172,#140,.T.);
#217=EDGE_CURVE('',#172,#173,#92,.T.);
#218=EDGE_CURVE('',#173,#174,#141,.T.);
#219=EDGE_CURVE('',#174,#173,#142,.T.);
#220=EDGE_CURVE('',#173,#175,#93,.T.);
#221=EDGE_CURVE('',#175,#176,#143,.T.);
#222=EDGE_CURVE('',#176,#177,#94,.T.);
#223=EDGE_CURVE('',#178,#177,#95,.T.);
#224=EDGE_CURVE('',#178,#179,#96,.T.);
#225=EDGE_CURVE('',#179,#180,#144,.T.);
#226=EDGE_CURVE('',#180,#174,#97,.T.);
#227=EDGE_CURVE('',#177,#181,#145,.T.);
#228=EDGE_CURVE('',#182,#181,#98,.T.);
#229=EDGE_CURVE('',#182,#178,#24,.T.);
#230=EDGE_CURVE('',#176,#183,#146,.T.);
#231=EDGE_CURVE('',#181,#183,#99,.T.);
#232=EDGE_CURVE('',#175,#184,#147,.T.);
#233=EDGE_CURVE('',#183,#184,#148,.T.);
#234=EDGE_CURVE('',#173,#185,#149,.T.);
#235=EDGE_CURVE('',#184,#185,#100,.T.);
#236=EDGE_CURVE('',#174,#186,#150,.T.);
#237=EDGE_CURVE('',#185,#186,#151,.T.);
#238=EDGE_CURVE('',#180,#187,#152,.T.);
#239=EDGE_CURVE('',#186,#187,#101,.T.);
#240=EDGE_CURVE('',#179,#188,#153,.T.);
#241=EDGE_CURVE('',#187,#188,#154,.T.);
#242=EDGE_CURVE('',#188,#182,#102,.T.);
#243=ORIENTED_EDGE('',*,*,#189,.F.);
#244=ORIENTED_EDGE('',*,*,#190,.T.);
#245=ORIENTED_EDGE('',*,*,#191,.F.);
#246=ORIENTED_EDGE('',*,*,#192,.F.);
#247=ORIENTED_EDGE('',*,*,#190,.F.);
#248=ORIENTED_EDGE('',*,*,#189,.T.);
#249=ORIENTED_EDGE('',*,*,#192,.T.);
#250=ORIENTED_EDGE('',*,*,#193,.F.);
#251=ORIENTED_EDGE('',*,*,#194,.F.);
#252=ORIENTED_EDGE('',*,*,#195,.F.);
#253=ORIENTED_EDGE('',*,*,#196,.T.);
#254=ORIENTED_EDGE('',*,*,#197,.F.);
#255=ORIENTED_EDGE('',*,*,#198,.F.);
#256=ORIENTED_EDGE('',*,*,#199,.F.);
#257=ORIENTED_EDGE('',*,*,#200,.F.);
#258=ORIENTED_EDGE('',*,*,#196,.F.);
#259=ORIENTED_EDGE('',*,*,#201,.F.);
#260=ORIENTED_EDGE('',*,*,#202,.T.);
#261=ORIENTED_EDGE('',*,*,#200,.T.);
#262=ORIENTED_EDGE('',*,*,#203,.T.);
#263=ORIENTED_EDGE('',*,*,#204,.F.);
#264=ORIENTED_EDGE('',*,*,#197,.T.);
#265=ORIENTED_EDGE('',*,*,#205,.F.);
#266=ORIENTED_EDGE('',*,*,#198,.T.);
#267=ORIENTED_EDGE('',*,*,#204,.T.);
#268=ORIENTED_EDGE('',*,*,#206,.T.);
#269=ORIENTED_EDGE('',*,*,#207,.F.);
#270=ORIENTED_EDGE('',*,*,#199,.T.);
#271=ORIENTED_EDGE('',*,*,#205,.T.);
#272=ORIENTED_EDGE('',*,*,#208,.T.);
#273=ORIENTED_EDGE('',*,*,#209,.F.);
#274=ORIENTED_EDGE('',*,*,#191,.T.);
#275=ORIENTED_EDGE('',*,*,#207,.T.);
#276=ORIENTED_EDGE('',*,*,#210,.T.);
#277=ORIENTED_EDGE('',*,*,#211,.F.);
#278=ORIENTED_EDGE('',*,*,#193,.T.);
#279=ORIENTED_EDGE('',*,*,#209,.T.);
#280=ORIENTED_EDGE('',*,*,#212,.T.);
#281=ORIENTED_EDGE('',*,*,#213,.F.);
#282=ORIENTED_EDGE('',*,*,#194,.T.);
#283=ORIENTED_EDGE('',*,*,#211,.T.);
#284=ORIENTED_EDGE('',*,*,#214,.T.);
#285=ORIENTED_EDGE('',*,*,#201,.T.);
#286=ORIENTED_EDGE('',*,*,#195,.T.);
#287=ORIENTED_EDGE('',*,*,#213,.T.);
#288=ORIENTED_EDGE('',*,*,#215,.T.);
#289=ORIENTED_EDGE('',*,*,#203,.F.);
#290=ORIENTED_EDGE('',*,*,#202,.F.);
#291=ORIENTED_EDGE('',*,*,#215,.F.);
#292=ORIENTED_EDGE('',*,*,#214,.F.);
#293=ORIENTED_EDGE('',*,*,#212,.F.);
#294=ORIENTED_EDGE('',*,*,#210,.F.);
#295=ORIENTED_EDGE('',*,*,#208,.F.);
#296=ORIENTED_EDGE('',*,*,#206,.F.);
#297=ORIENTED_EDGE('',*,*,#216,.T.);
#298=ORIENTED_EDGE('',*,*,#217,.T.);
#299=ORIENTED_EDGE('',*,*,#218,.T.);
#300=ORIENTED_EDGE('',*,*,#219,.T.);
#301=ORIENTED_EDGE('',*,*,#217,.F.);
#302=ORIENTED_EDGE('',*,*,#216,.F.);
#303=ORIENTED_EDGE('',*,*,#218,.F.);
#304=ORIENTED_EDGE('',*,*,#220,.T.);
#305=ORIENTED_EDGE('',*,*,#221,.T.);
#306=ORIENTED_EDGE('',*,*,#222,.T.);
#307=ORIENTED_EDGE('',*,*,#223,.F.);
#308=ORIENTED_EDGE('',*,*,#224,.T.);
#309=ORIENTED_EDGE('',*,*,#225,.T.);
#310=ORIENTED_EDGE('',*,*,#226,.T.);
#311=ORIENTED_EDGE('',*,*,#227,.T.);
#312=ORIENTED_EDGE('',*,*,#228,.F.);
#313=ORIENTED_EDGE('',*,*,#229,.T.);
#314=ORIENTED_EDGE('',*,*,#223,.T.);
#315=ORIENTED_EDGE('',*,*,#227,.F.);
#316=ORIENTED_EDGE('',*,*,#222,.F.);
#317=ORIENTED_EDGE('',*,*,#230,.T.);
#318=ORIENTED_EDGE('',*,*,#231,.F.);
#319=ORIENTED_EDGE('',*,*,#232,.T.);
#320=ORIENTED_EDGE('',*,*,#233,.F.);
#321=ORIENTED_EDGE('',*,*,#230,.F.);
#322=ORIENTED_EDGE('',*,*,#221,.F.);
#323=ORIENTED_EDGE('',*,*,#234,.T.);
#324=ORIENTED_EDGE('',*,*,#235,.F.);
#325=ORIENTED_EDGE('',*,*,#232,.F.);
#326=ORIENTED_EDGE('',*,*,#220,.F.);
#327=ORIENTED_EDGE('',*,*,#236,.T.);
#328=ORIENTED_EDGE('',*,*,#237,.F.);
#329=ORIENTED_EDGE('',*,*,#234,.F.);
#330=ORIENTED_EDGE('',*,*,#219,.F.);
#331=ORIENTED_EDGE('',*,*,#238,.T.);
#332=ORIENTED_EDGE('',*,*,#239,.F.);
#333=ORIENTED_EDGE('',*,*,#236,.F.);
#334=ORIENTED_EDGE('',*,*,#226,.F.);
#335=ORIENTED_EDGE('',*,*,#240,.T.);
#336=ORIENTED_EDGE('',*,*,#241,.F.);
#337=ORIENTED_EDGE('',*,*,#238,.F.);
#338=ORIENTED_EDGE('',*,*,#225,.F.);
#339=ORIENTED_EDGE('',*,*,#229,.F.);
#340=ORIENTED_EDGE('',*,*,#242,.F.);
#341=ORIENTED_EDGE('',*,*,#240,.F.);
#342=ORIENTED_EDGE('',*,*,#224,.F.);
#343=ORIENTED_EDGE('',*,*,#231,.T.);
#344=ORIENTED_EDGE('',*,*,#233,.T.);
#345=ORIENTED_EDGE('',*,*,#235,.T.);
#346=ORIENTED_EDGE('',*,*,#237,.T.);
#347=ORIENTED_EDGE('',*,*,#239,.T.);
#348=ORIENTED_EDGE('',*,*,#241,.T.);
#349=ORIENTED_EDGE('',*,*,#242,.T.);
#350=ORIENTED_EDGE('',*,*,#228,.T.);
#351=CYLINDRICAL_SURFACE('',#388,2.);
#352=CYLINDRICAL_SURFACE('',#399,2.5);
#353=CYLINDRICAL_SURFACE('',#404,2.5);
#354=CYLINDRICAL_SURFACE('',#408,2.5);
#355=CYLINDRICAL_SURFACE('',#412,2.5);
#356=CYLINDRICAL_SURFACE('',#414,2.);
#357=CYLINDRICAL_SURFACE('',#425,2.5);
#358=CYLINDRICAL_SURFACE('',#430,2.5);
#359=CYLINDRICAL_SURFACE('',#434,2.5);
#360=CYLINDRICAL_SURFACE('',#438,2.5);
#361=ADVANCED_FACE('',(#33),#351,.T.);
#362=ADVANCED_FACE('',(#34),#25,.T.);
#363=ADVANCED_FACE('',(#35),#26,.T.);
#364=ADVANCED_FACE('',(#36),#27,.T.);
#365=ADVANCED_FACE('',(#37),#352,.T.);
#366=ADVANCED_FACE('',(#38),#21,.T.);
#367=ADVANCED_FACE('',(#39),#353,.T.);
#368=ADVANCED_FACE('',(#40),#17,.F.);
#369=ADVANCED_FACE('',(#41),#354,.T.);
#370=ADVANCED_FACE('',(#42),#18,.F.);
#371=ADVANCED_FACE('',(#43),#355,.T.);
#372=ADVANCED_FACE('',(#44),#28,.F.);
#373=ADVANCED_FACE('',(#45),#356,.T.);
#374=ADVANCED_FACE('',(#46),#29,.F.);
#375=ADVANCED_FACE('',(#47),#30,.F.);
#376=ADVANCED_FACE('',(#48),#31,.F.);
#377=ADVANCED_FACE('',(#49),#357,.T.);
#378=ADVANCED_FACE('',(#50),#22,.T.);
#379=ADVANCED_FACE('',(#51),#358,.T.);
#380=ADVANCED_FACE('',(#52),#19,.T.);
#381=ADVANCED_FACE('',(#53),#359,.T.);
#382=ADVANCED_FACE('',(#54),#20,.T.);
#383=ADVANCED_FACE('',(#55),#360,.T.);
#384=ADVANCED_FACE('',(#56),#32,.T.);
#385=CLOSED_SHELL('',(#361,#362,#363,#364,#365,#366,#367,#368,#369,#370,
#371,#372));
#386=CLOSED_SHELL('',(#373,#374,#375,#376,#377,#378,#379,#380,#381,#382,
#383,#384));
#387=AXIS2_PLACEMENT_3D('',#568,#440,#441);
#388=AXIS2_PLACEMENT_3D('',#569,#442,#443);
#389=AXIS2_PLACEMENT_3D('',#571,#444,#445);
#390=AXIS2_PLACEMENT_3D('',#575,#447,#448);
#391=AXIS2_PLACEMENT_3D('',#576,#449,#450);
#392=AXIS2_PLACEMENT_3D('',#577,#451,#452);
#393=AXIS2_PLACEMENT_3D('',#578,#453,#454);
#394=AXIS2_PLACEMENT_3D('',#582,#456,#457);
#395=AXIS2_PLACEMENT_3D('',#590,#461,#462);
#396=AXIS2_PLACEMENT_3D('',#592,#464,#465);
#397=AXIS2_PLACEMENT_3D('',#594,#466,#467);
#398=AXIS2_PLACEMENT_3D('',#596,#468,#469);
#399=AXIS2_PLACEMENT_3D('',#598,#471,#472);
#400=AXIS2_PLACEMENT_3D('',#601,#474,#475);
#401=AXIS2_PLACEMENT_3D('',#602,#476,#477);
#402=AXIS2_PLACEMENT_3D('',#604,#478,#479);
#403=AXIS2_PLACEMENT_3D('',#605,#480,#481);
#404=AXIS2_PLACEMENT_3D('',#606,#482,#483);
#405=AXIS2_PLACEMENT_3D('',#608,#484,#485);
#406=AXIS2_PLACEMENT_3D('',#636,#487,#488);
#407=AXIS2_PLACEMENT_3D('',#637,#489,#490);
#408=AXIS2_PLACEMENT_3D('',#638,#491,#492);
#409=AXIS2_PLACEMENT_3D('',#640,#493,#494);
#410=AXIS2_PLACEMENT_3D('',#658,#496,#497);
#411=AXIS2_PLACEMENT_3D('',#659,#498,#499);
#412=AXIS2_PLACEMENT_3D('',#660,#500,#501);
#413=AXIS2_PLACEMENT_3D('',#662,#503,#504);
#414=AXIS2_PLACEMENT_3D('',#663,#505,#506);
#415=AXIS2_PLACEMENT_3D('',#665,#507,#508);
#416=AXIS2_PLACEMENT_3D('',#669,#510,#511);
#417=AXIS2_PLACEMENT_3D('',#670,#512,#513);
#418=AXIS2_PLACEMENT_3D('',#671,#514,#515);
#419=AXIS2_PLACEMENT_3D('',#672,#516,#517);
#420=AXIS2_PLACEMENT_3D('',#676,#519,#520);
#421=AXIS2_PLACEMENT_3D('',#684,#524,#525);
#422=AXIS2_PLACEMENT_3D('',#686,#527,#528);
#423=AXIS2_PLACEMENT_3D('',#688,#529,#530);
#424=AXIS2_PLACEMENT_3D('',#691,#532,#533);
#425=AXIS2_PLACEMENT_3D('',#692,#534,#535);
#426=AXIS2_PLACEMENT_3D('',#694,#536,#537);
#427=AXIS2_PLACEMENT_3D('',#696,#539,#540);
#428=AXIS2_PLACEMENT_3D('',#698,#541,#542);
#429=AXIS2_PLACEMENT_3D('',#699,#543,#544);
#430=AXIS2_PLACEMENT_3D('',#700,#545,#546);
#431=AXIS2_PLACEMENT_3D('',#702,#547,#548);
#432=AXIS2_PLACEMENT_3D('',#730,#550,#551);
#433=AXIS2_PLACEMENT_3D('',#731,#552,#553);
#434=AXIS2_PLACEMENT_3D('',#732,#554,#555);
#435=AXIS2_PLACEMENT_3D('',#734,#556,#557);
#436=AXIS2_PLACEMENT_3D('',#752,#559,#560);
#437=AXIS2_PLACEMENT_3D('',#753,#561,#562);
#438=AXIS2_PLACEMENT_3D('',#754,#563,#564);
#439=AXIS2_PLACEMENT_3D('',#756,#566,#567);
#440=DIRECTION('axis',(0.,0.,1.));
#441=DIRECTION('refdir',(1.,0.,0.));
#442=DIRECTION('center_axis',(0.,1.,0.));
#443=DIRECTION('ref_axis',(-1.,0.,0.));
#444=DIRECTION('center_axis',(0.,1.,0.));
#445=DIRECTION('ref_axis',(-1.,0.,0.));
#446=DIRECTION('',(0.,-1.,0.));
#447=DIRECTION('center_axis',(0.,-1.,0.));
#448=DIRECTION('ref_axis',(0.,0.,-1.));
#449=DIRECTION('center_axis',(0.,-1.,0.));
#450=DIRECTION('ref_axis',(-1.,0.,0.));
#451=DIRECTION('center_axis',(0.,1.,0.));
#452=DIRECTION('ref_axis',(-1.,0.,0.));
#453=DIRECTION('center_axis',(0.,1.,0.));
#454=DIRECTION('ref_axis',(1.,0.,0.));
#455=DIRECTION('',(0.,0.,-1.));
#456=DIRECTION('center_axis',(0.,-1.,0.));
#457=DIRECTION('ref_axis',(-0.871077497289872,0.,0.49114559319535));
#458=DIRECTION('',(-0.855651737968278,0.,-0.517552029569845));
#459=DIRECTION('',(0.642787609686542,0.,-0.766044443118976));
#460=DIRECTION('',(0.766044443118977,0.,0.64278760968654));
#461=DIRECTION('center_axis',(0.,1.,0.));
#462=DIRECTION('ref_axis',(-0.90630778703665,0.,0.422618261740699));
#463=DIRECTION('',(0.,0.,1.));
#464=DIRECTION('center_axis',(0.766044443118976,0.,0.642787609686542));
#465=DIRECTION('ref_axis',(0.642787609686542,0.,-0.766044443118976));
#466=DIRECTION('center_axis',(-0.766044443118976,0.,-0.642787609686542));
#467=DIRECTION('ref_axis',(0.454519477672046,-0.707106781186547,-0.541675220419701));
#468=DIRECTION('center_axis',(-0.766044443118976,0.,-0.642787609686542));
#469=DIRECTION('ref_axis',(-0.642787609686542,4.93676745029304E-16,0.766044443118976));
#470=DIRECTION('',(0.642787609686542,0.,-0.766044443118976));
#471=DIRECTION('center_axis',(-0.766044443118977,0.,-0.64278760968654));
#472=DIRECTION('ref_axis',(0.454519477672046,0.707106781186547,-0.541675220419701));
#473=DIRECTION('',(-0.766044443118977,0.,-0.64278760968654));
#474=DIRECTION('center_axis',(-0.766044443118977,0.,-0.64278760968654));
#475=DIRECTION('ref_axis',(0.64278760968654,0.,-0.766044443118977));
#476=DIRECTION('center_axis',(0.,1.,0.));
#477=DIRECTION('ref_axis',(0.,0.,1.));
#478=DIRECTION('center_axis',(0.,0.,-1.));
#479=DIRECTION('ref_axis',(1.,0.,0.));
#480=DIRECTION('center_axis',(0.,-1.,0.));
#481=DIRECTION('ref_axis',(-0.90630778703665,0.,0.422618261740699));
#482=DIRECTION('center_axis',(0.,0.,-1.));
#483=DIRECTION('ref_axis',(0.707106781186547,0.707106781186547,0.));
#484=DIRECTION('center_axis',(0.,0.,-1.));
#485=DIRECTION('ref_axis',(1.,0.,0.));
#486=DIRECTION('',(0.,0.,-1.));
#487=DIRECTION('center_axis',(0.,0.,1.));
#488=DIRECTION('ref_axis',(-1.,0.,0.));
#489=DIRECTION('center_axis',(0.,1.,0.));
#490=DIRECTION('ref_axis',(0.,0.,-1.));
#491=DIRECTION('center_axis',(0.,0.,1.));
#492=DIRECTION('ref_axis',(-0.707106781186547,0.707106781186547,0.));
#493=DIRECTION('center_axis',(1.98682140961637E-8,0.,1.));
#494=DIRECTION('ref_axis',(-1.,0.,1.98682140961637E-8));
#495=DIRECTION('',(0.,0.,1.));
#496=DIRECTION('center_axis',(0.855651737968278,0.,0.517552029569845));
#497=DIRECTION('ref_axis',(-0.517552029569845,0.,0.855651737968278));
#498=DIRECTION('center_axis',(0.,1.,0.));
#499=DIRECTION('ref_axis',(-0.871077497289872,0.,0.49114559319535));
#500=DIRECTION('center_axis',(0.855651737968278,0.,0.517552029569845));
#501=DIRECTION('ref_axis',(-0.365964549725696,0.707106781186548,0.605037146251425));
#502=DIRECTION('',(0.855651737968278,0.,0.517552029569845));
#503=DIRECTION('center_axis',(0.,1.,0.));
#504=DIRECTION('ref_axis',(1.,0.,0.));
#505=DIRECTION('center_axis',(0.,-1.,0.));
#506=DIRECTION('ref_axis',(1.,0.,0.));
#507=DIRECTION('center_axis',(0.,-1.,0.));
#508=DIRECTION('ref_axis',(1.,0.,0.));
#509=DIRECTION('',(0.,-1.,0.));
#510=DIRECTION('center_axis',(0.,1.,0.));
#511=DIRECTION('ref_axis',(1.,0.,0.));
#512=DIRECTION('center_axis',(0.,1.,0.));
#513=DIRECTION('ref_axis',(0.,0.,-1.));
#514=DIRECTION('center_axis',(0.,-1.,0.));
#515=DIRECTION('ref_axis',(1.,0.,0.));
#516=DIRECTION('center_axis',(0.,-1.,0.));
#517=DIRECTION('ref_axis',(-1.,0.,0.));
#518=DIRECTION('',(0.,0.,1.));
#519=DIRECTION('center_axis',(0.,-1.,0.));
#520=DIRECTION('ref_axis',(0.90630778703665,0.,0.422618261740699));
#521=DIRECTION('',(-0.766044443118977,0.,0.64278760968654));
#522=DIRECTION('',(-0.642787609686542,0.,-0.766044443118976));
#523=DIRECTION('',(0.855651737968278,0.,-0.517552029569845));
#524=DIRECTION('center_axis',(0.,1.,0.));
#525=DIRECTION('ref_axis',(0.871077497289872,0.,0.49114559319535));
#526=DIRECTION('',(0.,0.,-1.));
#527=DIRECTION('center_axis',(0.766044443118976,0.,-0.642787609686542));
#528=DIRECTION('ref_axis',(-0.642787609686542,0.,-0.766044443118976));
#529=DIRECTION('center_axis',(-0.766044443118976,0.,0.642787609686542));
#530=DIRECTION('ref_axis',(-0.454519477672046,-0.707106781186547,-0.541675220419701));
#531=DIRECTION('',(-0.642787609686542,0.,-0.766044443118976));
#532=DIRECTION('center_axis',(-0.766044443118976,0.,0.642787609686542));
#533=DIRECTION('ref_axis',(0.642787609686542,4.93676745029304E-16,0.766044443118976));
#534=DIRECTION('center_axis',(-0.766044443118977,0.,0.64278760968654));
#535=DIRECTION('ref_axis',(-0.454519477672046,0.707106781186547,-0.541675220419701));
#536=DIRECTION('center_axis',(-0.766044443118977,0.,0.64278760968654));
#537=DIRECTION('ref_axis',(-0.64278760968654,0.,-0.766044443118977));
#538=DIRECTION('',(0.766044443118977,0.,-0.64278760968654));
#539=DIRECTION('center_axis',(0.,1.,0.));
#540=DIRECTION('ref_axis',(0.,0.,1.));
#541=DIRECTION('center_axis',(0.,0.,1.));
#542=DIRECTION('ref_axis',(-1.,0.,0.));
#543=DIRECTION('center_axis',(0.,1.,0.));
#544=DIRECTION('ref_axis',(0.90630778703665,0.,0.422618261740699));
#545=DIRECTION('center_axis',(0.,0.,1.));
#546=DIRECTION('ref_axis',(-0.707106781186547,0.707106781186547,0.));
#547=DIRECTION('center_axis',(0.,0.,1.));
#548=DIRECTION('ref_axis',(-1.,0.,0.));
#549=DIRECTION('',(0.,0.,-1.));
#550=DIRECTION('center_axis',(0.,0.,-1.));
#551=DIRECTION('ref_axis',(1.,0.,0.));
#552=DIRECTION('center_axis',(0.,-1.,0.));
#553=DIRECTION('ref_axis',(0.,0.,-1.));
#554=DIRECTION('center_axis',(0.,0.,-1.));
#555=DIRECTION('ref_axis',(0.707106781186547,0.707106781186547,0.));
#556=DIRECTION('center_axis',(1.98682140961637E-8,0.,-1.));
#557=DIRECTION('ref_axis',(1.,0.,1.98682140961637E-8));
#558=DIRECTION('',(0.,0.,1.));
#559=DIRECTION('center_axis',(0.855651737968278,0.,-0.517552029569845));
#560=DIRECTION('ref_axis',(0.517552029569845,0.,0.855651737968278));
#561=DIRECTION('center_axis',(0.,-1.,0.));
#562=DIRECTION('ref_axis',(0.871077497289872,0.,0.49114559319535));
#563=DIRECTION('center_axis',(0.855651737968278,0.,-0.517552029569845));
#564=DIRECTION('ref_axis',(0.365964549725696,0.707106781186548,0.605037146251425));
#565=DIRECTION('',(-0.855651737968278,0.,0.517552029569845));
#566=DIRECTION('center_axis',(0.,-1.,0.));
#567=DIRECTION('ref_axis',(-1.,0.,0.));
#568=CARTESIAN_POINT('',(0.,0.,0.));
#569=CARTESIAN_POINT('Origin',(60.0000008940697,5.,-15.0000002235174));
#570=CARTESIAN_POINT('',(62.0000008940697,9.,-15.0000002235174));
#571=CARTESIAN_POINT('Origin',(60.0000008940697,9.,-15.0000002235174));
#572=CARTESIAN_POINT('',(62.0000008940697,5.,-15.0000002235174));
#573=CARTESIAN_POINT('',(62.0000008940697,5.,-15.0000002235174));
#574=CARTESIAN_POINT('',(58.0000008940697,5.,-15.0000002235174));
#575=CARTESIAN_POINT('Origin',(60.0000008940697,5.,-15.0000002235174));
#576=CARTESIAN_POINT('Origin',(60.0000008940697,5.,-15.0000002235174));
#577=CARTESIAN_POINT('Origin',(60.0000008940697,9.,-15.0000002235174));
#578=CARTESIAN_POINT('Origin',(62.5449674074844,5.,-9.88652320793038));
#579=CARTESIAN_POINT('',(58.0000008270144,5.,-9.00000013411045));
#580=CARTESIAN_POINT('',(58.0000008270144,5.,-12.4432617157239));
#581=CARTESIAN_POINT('',(58.96489683493,5.,-7.28869674758086));
#582=CARTESIAN_POINT('Origin',(60.0000008940697,5.,-9.00000022351742));
#583=CARTESIAN_POINT('',(67.3594598018616,5.,-2.21113667483033));
#584=CARTESIAN_POINT('',(59.7002367726411,5.,-6.8439168677552));
#585=CARTESIAN_POINT('',(67.9829649637381,5.,-2.95420119149769));
#586=CARTESIAN_POINT('',(65.7332087928186,5.,-0.273046192343344));
#587=CARTESIAN_POINT('',(63.2502442601668,5.,-6.92542538832947));
#588=CARTESIAN_POINT('',(64.6806398661845,5.,-5.7251809628824));
#589=CARTESIAN_POINT('',(62.0000008940697,5.,-9.60658093924589));
#590=CARTESIAN_POINT('Origin',(65.5000008940697,5.,-9.60658093924589));
#591=CARTESIAN_POINT('',(62.0000008940697,5.,-9.51339824451064));
#592=CARTESIAN_POINT('Origin',(65.7332087928186,0.,-0.273046192343344));
#593=CARTESIAN_POINT('',(67.9829649637381,0.,-2.95420119149768));
#594=CARTESIAN_POINT('Origin',(67.9829649637381,2.5,-2.95420119149769));
#595=CARTESIAN_POINT('',(67.3594598018616,0.,-2.21113667483033));
#596=CARTESIAN_POINT('Origin',(67.3594598018616,2.5,-2.21113667483033));
#597=CARTESIAN_POINT('',(65.7332087928186,0.,-0.273046192343344));
#598=CARTESIAN_POINT('Origin',(64.6806398661845,2.5,-5.7251809628824));
#599=CARTESIAN_POINT('',(63.2502442601668,0.,-6.92542538832947));
#600=CARTESIAN_POINT('',(64.6806398661845,0.,-5.7251809628824));
#601=CARTESIAN_POINT('Origin',(63.2502442601668,2.5,-6.92542538832947));
#602=CARTESIAN_POINT('Origin',(65.5000008940697,2.5,-9.60658093924589));
#603=CARTESIAN_POINT('',(62.0000008940697,0.,-9.60658093924589));
#604=CARTESIAN_POINT('Origin',(62.0000008940697,2.5,-9.60658093924589));
#605=CARTESIAN_POINT('Origin',(65.5000008940697,0.,-9.60658093924589));
#606=CARTESIAN_POINT('Origin',(62.0000008940697,2.5,-9.51339824451064));
#607=CARTESIAN_POINT('',(62.0000008940697,0.,-15.0000002235174));
#608=CARTESIAN_POINT('Origin',(62.0000008940697,2.5,-15.0000002235174));
#609=CARTESIAN_POINT('',(62.0000008940697,0.,-9.51339824451064));
#610=CARTESIAN_POINT('Ctrl Pts',(62.0000008940697,0.,-15.0000002235174));
#611=CARTESIAN_POINT('Ctrl Pts',(62.0000008940697,0.,-17.0000002235174));
#612=CARTESIAN_POINT('Ctrl Pts',(60.0000008940697,0.,-17.0000002235174));
#613=CARTESIAN_POINT('Ctrl Pts',(58.0000008940697,0.,-17.0000002235174));
#614=CARTESIAN_POINT('Ctrl Pts',(58.0000008940697,0.,-15.0000002235174));
#615=CARTESIAN_POINT('Ctrl Pts',(64.5000008940697,-3.88578058618805E-15,
-15.0000002235174));
#616=CARTESIAN_POINT('Ctrl Pts',(64.5000008940697,-3.80924016124134E-15,
-19.5000002235174));
#617=CARTESIAN_POINT('Ctrl Pts',(60.0000008940697,-3.80924016124134E-15,
-19.5000002235174));
#618=CARTESIAN_POINT('Ctrl Pts',(55.5000008940697,-3.80924016124134E-15,
-19.5000002235174));
#619=CARTESIAN_POINT('Ctrl Pts',(55.5000008940697,-3.88578058618805E-15,
-15.0000002235174));
#620=CARTESIAN_POINT('Ctrl Pts',(64.5000008940697,2.5,-15.0000002235174));
#621=CARTESIAN_POINT('Ctrl Pts',(64.5000008940697,2.5,-19.5000002235174));
#622=CARTESIAN_POINT('Ctrl Pts',(60.0000008940697,2.5,-19.5000002235174));
#623=CARTESIAN_POINT('Ctrl Pts',(55.5000008940697,2.5,-19.5000002235174));
#624=CARTESIAN_POINT('Ctrl Pts',(55.5000008940697,2.5,-15.0000002235174));
#625=CARTESIAN_POINT('Ctrl Pts',(64.5000008940697,5.,-15.0000002235174));
#626=CARTESIAN_POINT('Ctrl Pts',(64.5000008940697,5.,-19.5000002235174));
#627=CARTESIAN_POINT('Ctrl Pts',(60.0000008940697,5.,-19.5000002235174));
#628=CARTESIAN_POINT('Ctrl Pts',(55.5000008940697,5.,-19.5000002235174));
#629=CARTESIAN_POINT('Ctrl Pts',(55.5000008940697,5.,-15.0000002235174));
#630=CARTESIAN_POINT('Ctrl Pts',(62.0000008940697,5.,-15.0000002235174));
#631=CARTESIAN_POINT('Ctrl Pts',(62.0000008940697,5.,-17.0000002235174));
#632=CARTESIAN_POINT('Ctrl Pts',(60.0000008940697,5.,-17.0000002235174));
#633=CARTESIAN_POINT('Ctrl Pts',(58.0000008940697,5.,-17.0000002235174));
#634=CARTESIAN_POINT('Ctrl Pts',(58.0000008940697,5.,-15.0000002235174));
#635=CARTESIAN_POINT('',(58.0000008270144,0.,-15.0000002235174));
#636=CARTESIAN_POINT('Origin',(58.0000008270144,2.5,-15.0000002235174));
#637=CARTESIAN_POINT('Origin',(60.0000008940697,0.,-15.0000002235174));
#638=CARTESIAN_POINT('Origin',(58.0000008270144,2.5,-12.4432617157239));
#639=CARTESIAN_POINT('',(58.0000008940697,0.,-9.00000018378099));
#640=CARTESIAN_POINT('Origin',(58.0000008940697,2.5,-9.00000018378099));
#641=CARTESIAN_POINT('',(58.0000008270144,0.,-12.4432617157239));
#642=CARTESIAN_POINT('Ctrl Pts',(58.0000008940697,0.,-9.00000018378099));
#643=CARTESIAN_POINT('Ctrl Pts',(58.0000009164745,0.,-7.87232653381382));
#644=CARTESIAN_POINT('Ctrl Pts',(58.96489683493,0.,-7.28869674758087));
#645=CARTESIAN_POINT('Ctrl Pts',(55.5000008940697,-1.66533453541701E-15,
-9.00000013411045));
#646=CARTESIAN_POINT('Ctrl Pts',(55.5000009444806,-1.62217822523217E-15,
-6.46273442168431));
#647=CARTESIAN_POINT('Ctrl Pts',(57.6710167610053,-1.59984258930725E-15,
-5.14956740266018));
#648=CARTESIAN_POINT('Ctrl Pts',(55.5000008940697,2.5,-9.00000013411045));
#649=CARTESIAN_POINT('Ctrl Pts',(55.5000009444806,2.5,-6.46273442168431));
#650=CARTESIAN_POINT('Ctrl Pts',(57.6710167610053,2.5,-5.14956740266018));
#651=CARTESIAN_POINT('Ctrl Pts',(55.5000008940697,5.,-9.00000013411045));
#652=CARTESIAN_POINT('Ctrl Pts',(55.5000009444806,5.,-6.46273442168431));
#653=CARTESIAN_POINT('Ctrl Pts',(57.6710167610053,5.,-5.14956740266018));
#654=CARTESIAN_POINT('Ctrl Pts',(58.0000008940697,5.,-9.00000018378099));
#655=CARTESIAN_POINT('Ctrl Pts',(58.0000009164745,5.,-7.87232653381382));
#656=CARTESIAN_POINT('Ctrl Pts',(58.96489683493,5.,-7.28869674758087));
#657=CARTESIAN_POINT('',(58.96489683493,0.,-7.28869674758086));
#658=CARTESIAN_POINT('Origin',(58.96489683493,2.5,-7.28869674758086));
#659=CARTESIAN_POINT('Origin',(60.0000008940697,0.,-9.00000022351742));
#660=CARTESIAN_POINT('Origin',(59.7002367726411,2.5,-6.8439168677552));
#661=CARTESIAN_POINT('',(59.7002367726411,0.,-6.8439168677552));
#662=CARTESIAN_POINT('Origin',(62.5449674074844,0.,-9.88652320793038));
#663=CARTESIAN_POINT('Origin',(-60.0000008940697,5.,-15.0000002235174));
#664=CARTESIAN_POINT('',(-62.0000008940697,9.,-15.0000002235174));
#665=CARTESIAN_POINT('Origin',(-60.0000008940697,9.,-15.0000002235174));
#666=CARTESIAN_POINT('',(-62.0000008940697,5.,-15.0000002235174));
#667=CARTESIAN_POINT('',(-62.0000008940697,5.,-15.0000002235174));
#668=CARTESIAN_POINT('',(-58.0000008940697,5.,-15.0000002235174));
#669=CARTESIAN_POINT('Origin',(-60.0000008940697,5.,-15.0000002235174));
#670=CARTESIAN_POINT('Origin',(-60.0000008940697,5.,-15.0000002235174));
#671=CARTESIAN_POINT('Origin',(-60.0000008940697,9.,-15.0000002235174));
#672=CARTESIAN_POINT('Origin',(-62.5449674074844,5.,-9.88652320793038));
#673=CARTESIAN_POINT('',(-62.0000008940697,5.,-9.60658093924589));
#674=CARTESIAN_POINT('',(-62.0000008940697,5.,-9.51339824451064));
#675=CARTESIAN_POINT('',(-63.2502442601668,5.,-6.92542538832947));
#676=CARTESIAN_POINT('Origin',(-65.5000008940697,5.,-9.60658093924589));
#677=CARTESIAN_POINT('',(-67.9829649637381,5.,-2.95420119149769));
#678=CARTESIAN_POINT('',(-64.6806398661845,5.,-5.7251809628824));
#679=CARTESIAN_POINT('',(-67.3594598018616,5.,-2.21113667483033));
#680=CARTESIAN_POINT('',(-65.7332087928186,5.,-0.273046192343344));
#681=CARTESIAN_POINT('',(-58.96489683493,5.,-7.28869674758086));
#682=CARTESIAN_POINT('',(-59.7002367726411,5.,-6.8439168677552));
#683=CARTESIAN_POINT('',(-58.0000008270144,5.,-9.00000013411045));
#684=CARTESIAN_POINT('Origin',(-60.0000008940697,5.,-9.00000022351742));
#685=CARTESIAN_POINT('',(-58.0000008270144,5.,-12.4432617157239));
#686=CARTESIAN_POINT('Origin',(-65.7332087928186,0.,-0.273046192343344));
#687=CARTESIAN_POINT('',(-67.9829649637381,0.,-2.95420119149768));
#688=CARTESIAN_POINT('Origin',(-67.9829649637381,2.5,-2.95420119149769));
#689=CARTESIAN_POINT('',(-67.3594598018616,0.,-2.21113667483033));
#690=CARTESIAN_POINT('',(-65.7332087928186,0.,-0.273046192343344));
#691=CARTESIAN_POINT('Origin',(-67.3594598018616,2.5,-2.21113667483033));
#692=CARTESIAN_POINT('Origin',(-64.6806398661845,2.5,-5.7251809628824));
#693=CARTESIAN_POINT('',(-63.2502442601668,0.,-6.92542538832947));
#694=CARTESIAN_POINT('Origin',(-63.2502442601668,2.5,-6.92542538832947));
#695=CARTESIAN_POINT('',(-64.6806398661845,0.,-5.7251809628824));
#696=CARTESIAN_POINT('Origin',(-65.5000008940697,2.5,-9.60658093924589));
#697=CARTESIAN_POINT('',(-62.0000008940697,0.,-9.60658093924589));
#698=CARTESIAN_POINT('Origin',(-62.0000008940697,2.5,-9.60658093924589));
#699=CARTESIAN_POINT('Origin',(-65.5000008940697,0.,-9.60658093924589));
#700=CARTESIAN_POINT('Origin',(-62.0000008940697,2.5,-9.51339824451064));
#701=CARTESIAN_POINT('',(-62.0000008940697,0.,-15.0000002235174));
#702=CARTESIAN_POINT('Origin',(-62.0000008940697,2.5,-15.0000002235174));
#703=CARTESIAN_POINT('',(-62.0000008940697,0.,-9.51339824451064));
#704=CARTESIAN_POINT('Ctrl Pts',(-62.0000008940697,0.,-15.0000002235174));
#705=CARTESIAN_POINT('Ctrl Pts',(-62.0000008940697,0.,-17.0000002235174));
#706=CARTESIAN_POINT('Ctrl Pts',(-60.0000008940697,0.,-17.0000002235174));
#707=CARTESIAN_POINT('Ctrl Pts',(-58.0000008940697,0.,-17.0000002235174));
#708=CARTESIAN_POINT('Ctrl Pts',(-58.0000008940697,0.,-15.0000002235174));
#709=CARTESIAN_POINT('Ctrl Pts',(-64.5000008940697,-3.88578058618805E-15,
-15.0000002235174));
#710=CARTESIAN_POINT('Ctrl Pts',(-64.5000008940697,-3.80924016124134E-15,
-19.5000002235174));
#711=CARTESIAN_POINT('Ctrl Pts',(-60.0000008940697,-3.80924016124134E-15,
-19.5000002235174));
#712=CARTESIAN_POINT('Ctrl Pts',(-55.5000008940697,-3.80924016124134E-15,
-19.5000002235174));
#713=CARTESIAN_POINT('Ctrl Pts',(-55.5000008940697,-3.88578058618805E-15,
-15.0000002235174));
#714=CARTESIAN_POINT('Ctrl Pts',(-64.5000008940697,2.5,-15.0000002235174));
#715=CARTESIAN_POINT('Ctrl Pts',(-64.5000008940697,2.5,-19.5000002235174));
#716=CARTESIAN_POINT('Ctrl Pts',(-60.0000008940697,2.5,-19.5000002235174));
#717=CARTESIAN_POINT('Ctrl Pts',(-55.5000008940697,2.5,-19.5000002235174));
#718=CARTESIAN_POINT('Ctrl Pts',(-55.5000008940697,2.5,-15.0000002235174));
#719=CARTESIAN_POINT('Ctrl Pts',(-64.5000008940697,5.,-15.0000002235174));
#720=CARTESIAN_POINT('Ctrl Pts',(-64.5000008940697,5.,-19.5000002235174));
#721=CARTESIAN_POINT('Ctrl Pts',(-60.0000008940697,5.,-19.5000002235174));
#722=CARTESIAN_POINT('Ctrl Pts',(-55.5000008940697,5.,-19.5000002235174));
#723=CARTESIAN_POINT('Ctrl Pts',(-55.5000008940697,5.,-15.0000002235174));
#724=CARTESIAN_POINT('Ctrl Pts',(-62.0000008940697,5.,-15.0000002235174));
#725=CARTESIAN_POINT('Ctrl Pts',(-62.0000008940697,5.,-17.0000002235174));
#726=CARTESIAN_POINT('Ctrl Pts',(-60.0000008940697,5.,-17.0000002235174));
#727=CARTESIAN_POINT('Ctrl Pts',(-58.0000008940697,5.,-17.0000002235174));
#728=CARTESIAN_POINT('Ctrl Pts',(-58.0000008940697,5.,-15.0000002235174));
#729=CARTESIAN_POINT('',(-58.0000008270144,0.,-15.0000002235174));
#730=CARTESIAN_POINT('Origin',(-58.0000008270144,2.5,-15.0000002235174));
#731=CARTESIAN_POINT('Origin',(-60.0000008940697,0.,-15.0000002235174));
#732=CARTESIAN_POINT('Origin',(-58.0000008270144,2.5,-12.4432617157239));
#733=CARTESIAN_POINT('',(-58.0000008940697,0.,-9.00000018378099));
#734=CARTESIAN_POINT('Origin',(-58.0000008940697,2.5,-9.00000018378099));
#735=CARTESIAN_POINT('',(-58.0000008270144,0.,-12.4432617157239));
#736=CARTESIAN_POINT('Ctrl Pts',(-58.0000008940697,0.,-9.00000018378099));
#737=CARTESIAN_POINT('Ctrl Pts',(-58.0000009164745,0.,-7.87232653381382));
#738=CARTESIAN_POINT('Ctrl Pts',(-58.96489683493,0.,-7.28869674758087));
#739=CARTESIAN_POINT('Ctrl Pts',(-55.5000008940697,-1.66533453541701E-15,
-9.00000013411045));
#740=CARTESIAN_POINT('Ctrl Pts',(-55.5000009444806,-1.62217822523217E-15,
-6.46273442168431));
#741=CARTESIAN_POINT('Ctrl Pts',(-57.6710167610053,-1.59984258930725E-15,
-5.14956740266018));
#742=CARTESIAN_POINT('Ctrl Pts',(-55.5000008940697,2.5,-9.00000013411045));
#743=CARTESIAN_POINT('Ctrl Pts',(-55.5000009444806,2.5,-6.46273442168431));
#744=CARTESIAN_POINT('Ctrl Pts',(-57.6710167610053,2.5,-5.14956740266018));
#745=CARTESIAN_POINT('Ctrl Pts',(-55.5000008940697,5.,-9.00000013411045));
#746=CARTESIAN_POINT('Ctrl Pts',(-55.5000009444806,5.,-6.46273442168431));
#747=CARTESIAN_POINT('Ctrl Pts',(-57.6710167610053,5.,-5.14956740266018));
#748=CARTESIAN_POINT('Ctrl Pts',(-58.0000008940697,5.,-9.00000018378099));
#749=CARTESIAN_POINT('Ctrl Pts',(-58.0000009164745,5.,-7.87232653381382));
#750=CARTESIAN_POINT('Ctrl Pts',(-58.96489683493,5.,-7.28869674758087));
#751=CARTESIAN_POINT('',(-58.96489683493,0.,-7.28869674758086));
#752=CARTESIAN_POINT('Origin',(-58.96489683493,2.5,-7.28869674758086));
#753=CARTESIAN_POINT('Origin',(-60.0000008940697,0.,-9.00000022351742));
#754=CARTESIAN_POINT('Origin',(-59.7002367726411,2.5,-6.8439168677552));
#755=CARTESIAN_POINT('',(-59.7002367726411,0.,-6.8439168677552));
#756=CARTESIAN_POINT('Origin',(-62.5449674074844,0.,-9.88652320793038));
#757=UNCERTAINTY_MEASURE_WITH_UNIT(LENGTH_MEASURE(0.01),#761,
'DISTANCE_ACCURACY_VALUE',
'Maximum model space distance between geometric entities at asserted c
onnectivities');
#758=UNCERTAINTY_MEASURE_WITH_UNIT(LENGTH_MEASURE(0.01),#761,
'DISTANCE_ACCURACY_VALUE',
'Maximum model space distance between geometric entities at asserted c
onnectivities');
#759=(
GEOMETRIC_REPRESENTATION_CONTEXT(3)
GLOBAL_UNCERTAINTY_ASSIGNED_CONTEXT((#757))
GLOBAL_UNIT_ASSIGNED_CONTEXT((#761,#762,#763))
REPRESENTATION_CONTEXT('','3D')
);
#760=(
GEOMETRIC_REPRESENTATION_CONTEXT(3)
GLOBAL_UNCERTAINTY_ASSIGNED_CONTEXT((#758))
GLOBAL_UNIT_ASSIGNED_CONTEXT((#761,#762,#763))
REPRESENTATION_CONTEXT('','3D')
);
#761=(
LENGTH_UNIT()
NAMED_UNIT(*)
SI_UNIT(.MILLI.,.METRE.)
);
#762=(
NAMED_UNIT(*)
PLANE_ANGLE_UNIT()
SI_UNIT($,.RADIAN.)
);
#763=(
NAMED_UNIT(*)
SI_UNIT($,.STERADIAN.)
SOLID_ANGLE_UNIT()
);
#764=SHAPE_DEFINITION_REPRESENTATION(#765,#766);
#765=PRODUCT_DEFINITION_SHAPE('',$,#768);
#766=SHAPE_REPRESENTATION('',(#387),#759);
#767=PRODUCT_DEFINITION_CONTEXT('part definition',#772,'design');
#768=PRODUCT_DEFINITION('2026-08-10-15-01-41-045','CHAT BOT',#769,#767);
#769=PRODUCT_DEFINITION_FORMATION('',$,#774);
#770=PRODUCT_RELATED_PRODUCT_CATEGORY('CHAT BOT','CHAT BOT',(#774));
#771=APPLICATION_PROTOCOL_DEFINITION('international standard',
'automotive_design',2009,#772);
#772=APPLICATION_CONTEXT(
'Core Data for Automotive Mechanical Design Process');
#773=PRODUCT_CONTEXT('part definition',#772,'mechanical');
#774=PRODUCT('2026-08-10-15-01-41-045','CHAT BOT',$,(#773));
#775=PRESENTATION_STYLE_ASSIGNMENT((#778));
#776=PRESENTATION_STYLE_ASSIGNMENT((#779));
#777=PRESENTATION_STYLE_ASSIGNMENT((#780));
#778=SURFACE_STYLE_USAGE(.BOTH.,#781);
#779=SURFACE_STYLE_USAGE(.BOTH.,#782);
#780=SURFACE_STYLE_USAGE(.BOTH.,#783);
#781=SURFACE_SIDE_STYLE('',(#784));
#782=SURFACE_SIDE_STYLE('',(#785));
#783=SURFACE_SIDE_STYLE('',(#786));
#784=SURFACE_STYLE_FILL_AREA(#787);
#785=SURFACE_STYLE_FILL_AREA(#788);
#786=SURFACE_STYLE_FILL_AREA(#789);
#787=FILL_AREA_STYLE('Steel - Satin',(#790));
#788=FILL_AREA_STYLE('Paint - Enamel Glossy (Grey)',(#791));
#789=FILL_AREA_STYLE('Paint - Enamel Glossy (Black)',(#792));
#790=FILL_AREA_STYLE_COLOUR('Steel - Satin',#793);
#791=FILL_AREA_STYLE_COLOUR('Paint - Enamel Glossy (Grey)',#794);
#792=FILL_AREA_STYLE_COLOUR('Paint - Enamel Glossy (Black)',#795);
#793=COLOUR_RGB('Steel - Satin',0.627450980392157,0.627450980392157,0.627450980392157);
#794=COLOUR_RGB('Paint - Enamel Glossy (Grey)',0.701960784313725,0.701960784313725,
0.701960784313725);
#795=COLOUR_RGB('Paint - Enamel Glossy (Black)',0.0980392156862745,0.0980392156862745,
0.0980392156862745);
ENDSEC;
END-ISO-10303-21;
